<?xml version="1.0" encoding="iso-8859-1"?>
<!-- Icon is from https://www.pngrepo.com/svg/192042/dracula CC BY 4.0 with some modifications.  -->
<svg version="1.1" id="Layer_1" xmlns="http://www.w3.org/2000/svg" xmlns:xlink="http://www.w3.org/1999/xlink" x="0px" y="0px"
	 viewBox="0 0 512 512" style="enable-background:new 0 0 512 512;" xml:space="preserve">
	<path fill="grey" d="M328.348,378.435H183.652c-9.22,0-16.696,7.475-16.696,16.696s7.475,16.696,16.696,16.696h16.696v16.696
		c0,9.22,7.475,16.696,16.696,16.696c9.22,0,16.696-7.475,16.696-16.696v-16.696h44.522v16.696c0,9.22,7.475,16.696,16.696,16.696
		s16.696-7.475,16.696-16.696v-16.696h16.696c9.22,0,16.696-7.475,16.696-16.696S337.568,378.435,328.348,378.435z"/>
	<path fill="grey" d="M183.652,200.348c-27.619,0-50.087,22.468-50.087,50.087c0,27.619,22.468,50.087,50.087,50.087
		c27.619,0,50.087-22.467,50.087-50.087C233.739,222.816,211.272,200.348,183.652,200.348z M183.652,267.13
		c-9.22,0-16.696-7.475-16.696-16.696c0-9.22,7.475-16.696,16.696-16.696c9.22,0,16.696,7.475,16.696,16.696
		C200.348,259.655,192.873,267.13,183.652,267.13z"/>
	<path fill="grey" d="M328.348,200.348c-27.619,0-50.087,22.468-50.087,50.087c0,27.619,22.468,50.087,50.087,50.087
		c27.62,0,50.087-22.468,50.087-50.087C378.435,222.816,355.967,200.348,328.348,200.348z M328.348,267.13
		c-9.22,0-16.696-7.475-16.696-16.696c0-9.22,7.475-16.696,16.696-16.696s16.696,7.475,16.696,16.696
		C345.043,259.655,337.568,267.13,328.348,267.13z"/>
	<path fill="grey" d="M495.304,200.348h-50.087C445.217,73.279,352.59-0.047,255.904,0C160.471,0.047,66.783,73.612,66.783,200.348H16.696
		C7.475,200.348,0,207.823,0,217.043v50.087c0,36.883,29.9,66.783,66.783,66.783h0.562C73.137,432.974,155.255,512,256,512
		s182.864-79.026,188.655-178.087h0.562c36.883,0,66.783-29.9,66.783-66.783v-50.087C512,207.823,504.525,200.348,495.304,200.348z
		 M66.783,300.522c-18.922,0-33.391-14.978-33.391-33.391v-33.391h33.391V300.522z M256,33.391
		c30.707,0,59.258,9.068,83.394,24.488c-37.023,7.219-67.821,31.933-83.394,65.222c-15.574-33.289-46.37-58.003-83.394-65.222
		C196.742,42.459,225.293,33.391,256,33.391z M411.826,322.783c0,85.924-69.903,155.826-155.826,155.826
		s-155.826-69.902-155.826-155.826c0-137.156-8.71-178.701,35.45-232.392c4.758-0.847,9.637-1.347,14.637-1.347
		c44.154,0,80.313,34.504,83.196,77.913h0.283c0,12.243,9.967,22.261,22.261,22.261s22.261-10.017,22.261-22.261h0.283
		c2.883-43.409,39.041-77.913,83.196-77.913c5,0,9.878,0.5,14.635,1.347C418.825,142.001,411.826,178.983,411.826,322.783z
		 M478.609,267.13c0,18.413-14.47,33.391-33.391,33.391v-66.783h33.391V267.13z"/>
</svg>
